<svg xmlns="http://www.w3.org/2000/svg" xmlns:xlink="http://www.w3.org/1999/xlink" viewBox="0 0 65.599 34.599" fill="#fff" fill-rule="evenodd" stroke="#000" stroke-linecap="round" stroke-linejoin="round"><use xlink:href="#A" x=".8" y=".8"/><symbol id="A" overflow="visible"><path d="M49.721.729l-4.525 18.41L40.657.731H27.55v6.796C25.957 1.578 20.114.087 14.894.002 8.529-.081 1.474 2.677 1.23 11.094h8.787c0-2.558 2.327-3.998 4.525-3.959 2.698-.022 3.938 1.129 4.001 2.921-.093 1.556-1.011 2.638-3.978 2.638h-2.949v6.108h2.686c1.527 0 3.652.832 3.735 3.006.102 2.59-1.7 3.731-3.918 3.753-3.959-.147-4.981-3.189-4.981-5.805H0c.038 1.762-.019 13.248 14.303 13.163 6.876.064 11.855-2.822 13.264-6.799v6.096h8.833v-19.86l4.874 19.86h7.875l4.893-19.838v19.855h8.993V.729zM27.579 19.094c-1.123-2.322-2.718-3.337-3.591-3.659 1.866-.832 2.843-1.956 3.591-4.199z" fill="#ee1b2d" stroke="none"/></symbol></svg>